PathFileType	4	(X/Y/Z)	output.trc
DataRate	CameraRate	NumFrames	NumMarkers	Units	OrigDataRate	OrigDataStartFrame	OrigNumFrames
100	100	18	23	m	100	658	5257
Frame#	Time	C7			T8			EL			EM			US			RS			AA			Fore_Clus_1			Fore_Clus_2			Fore_Clus_3			Fore_Clus_4			Hum_Clus_1			Hum_Clus_2			Hum_Clus_3			Hum_Clus_4			Thor_Clus_1			Thor_Clus_2			Thor_Clus_3			Thor_Clus_4			IJ			PX			GH			Thor_Clus_5		
		X1	Y1	Z1	X2	Y2	Z2	X3	Y3	Z3	X4	Y4	Z4	X5	Y5	Z5	X6	Y6	Z6	X7	Y7	Z7	X8	Y8	Z8	X9	Y9	Z9	X10	Y10	Z10	X11	Y11	Z11	X12	Y12	Z12	X13	Y13	Z13	X14	Y14	Z14	X15	Y15	Z15	X16	Y16	Z16	X17	Y17	Z17	X18	Y18	Z18	X19	Y19	Z19	X20	Y20	Z20	X21	Y21	Z21	X22	Y22	Z22	X23	Y23	Z23
657	6.570000	0.000042	1.650180	-0.062906	0.000330	1.405942	-0.119286	-0.205112	1.214490	0.092633	-0.155272	1.210995	0.043054	-0.188667	0.918302	0.126809	-0.155735	0.924403	0.176684	-0.149274	1.541832	0.105945	-0.219616	0.964002	0.145226	-0.214457	0.909823	0.153422	-0.199725	0.914381	0.176881	-0.196206	0.971906	0.182794	-0.179684	1.327459	0.157270	-0.220722	1.342272	0.116147	-0.217462	1.405894	0.119940	-0.171529	1.401042	0.156437	0.151261	1.553895	0.064961	0.119088	1.500325	0.122176	0.115582	1.549451	0.091981	0.170097	1.506500	0.082682	0.078899	1.576087	0.031789	0.125505	1.377465	0.072252	-0.130099	1.520760	0.092416	0.110659	1.521170	0.114012
658	6.580000	0.000019	1.650196	-0.062998	0.000223	1.405972	-0.119442	-0.204647	1.214431	0.092865	-0.154905	1.210983	0.043185	-0.188245	0.918411	0.127044	-0.155485	0.924556	0.177026	-0.149329	1.541854	0.105829	-0.219287	0.964038	0.145381	-0.214186	0.909905	0.153649	-0.199534	0.914400	0.177086	-0.196854	0.972869	0.184000	-0.179305	1.327436	0.157327	-0.220487	1.342181	0.116313	-0.217269	1.405803	0.120012	-0.171255	1.401057	0.156428	0.151216	1.553802	0.064850	0.119021	1.500214	0.122021	0.115525	1.549355	0.091866	0.169956	1.506140	0.082456	0.078854	1.576051	0.031675	0.125394	1.377404	0.072086	-0.130096	1.520814	0.092324	0.110608	1.521049	0.113850
659	6.590000	-0.000000	1.650215	-0.063099	0.000106	1.406003	-0.119592	-0.204115	1.214385	0.093174	-0.154492	1.210981	0.043373	-0.187732	0.918540	0.127366	-0.155184	0.924745	0.177479	-0.149391	1.541899	0.105707	-0.218942	0.964149	0.145528	-0.213930	0.910390	0.154045	-0.199311	0.914545	0.177374	-0.196178	0.972777	0.183941	-0.178792	1.327471	0.157436	-0.220011	1.342198	0.116356	-0.216979	1.405769	0.120182	-0.170856	1.401118	0.156457	0.151152	1.553693	0.064771	0.118909	1.500081	0.121899	0.115435	1.549243	0.091790	0.169871	1.506041	0.082355	0.078805	1.576020	0.031560	0.125266	1.377346	0.071930	-0.130070	1.520890	0.092208	0.110503	1.520934	0.113732
660	6.600000	-0.000012	1.650233	-0.063214	-0.000007	1.406028	-0.119738	-0.203526	1.214351	0.093562	-0.154042	1.210982	0.043619	-0.187107	0.918680	0.127801	-0.154815	0.924975	0.178069	-0.149457	1.541961	0.105570	-0.218535	0.964282	0.145668	-0.213537	0.910546	0.154306	-0.199017	0.914825	0.177763	-0.196483	0.973211	0.184488	-0.178108	1.327577	0.157624	-0.219311	1.342329	0.116188	-0.216614	1.405761	0.120439	-0.170360	1.401194	0.156513	0.151066	1.553569	0.064661	0.118784	1.499935	0.121783	0.115354	1.549105	0.091709	0.169776	1.505921	0.082264	0.078757	1.575993	0.031439	0.125130	1.377293	0.071787	-0.130017	1.520983	0.092065	0.110421	1.520800	0.113614
661	6.610000	-0.000014	1.650250	-0.063343	-0.000116	1.406048	-0.119877	-0.202891	1.214326	0.094025	-0.153566	1.210980	0.043924	-0.186356	0.918828	0.128374	-0.154365	0.925246	0.178819	-0.149525	1.542039	0.105423	-0.218014	0.964488	0.145904	-0.212867	0.910320	0.154504	-0.198551	0.914933	0.178122	-0.196287	0.973558	0.184905	-0.177365	1.327690	0.157849	-0.219127	1.342143	0.117178	-0.216211	1.405752	0.120769	-0.169801	1.401300	0.156657	0.150962	1.553447	0.064579	0.118658	1.499797	0.121677	0.115251	1.548982	0.091629	0.169672	1.505781	0.082169	0.078712	1.575970	0.031314	0.124990	1.377247	0.071658	-0.129933	1.521085	0.091896	0.110312	1.520670	0.113496
662	6.620000	-0.000008	1.650271	-0.063479	-0.000223	1.406068	-0.120010	-0.202227	1.214307	0.094556	-0.153076	1.210971	0.044283	-0.185471	0.918978	0.129114	-0.153819	0.925562	0.179751	-0.149590	1.542135	0.105272	-0.217362	0.964690	0.146273	-0.212108	0.910390	0.154868	-0.199075	0.916512	0.179246	-0.195006	0.972913	0.184400	-0.176644	1.327804	0.158061	-0.218297	1.342290	0.117096	-0.215757	1.405782	0.121100	-0.169213	1.401425	0.156832	0.150905	1.553336	0.064496	0.118560	1.499692	0.121566	0.115171	1.548880	0.091509	0.169524	1.505646	0.082012	0.078671	1.575953	0.031188	0.124848	1.377209	0.071540	-0.129813	1.521189	0.091703	0.110244	1.520574	0.113373
663	6.630000	0.000012	1.650288	-0.063631	-0.000311	1.406080	-0.120139	-0.201554	1.214290	0.095141	-0.152586	1.210948	0.044690	-0.184432	0.919130	0.130053	-0.153158	0.925933	0.180896	-0.149649	1.542239	0.105106	-0.216468	0.964877	0.146750	-0.211196	0.910619	0.155679	-0.198365	0.916872	0.180103	-0.194475	0.973238	0.185062	-0.175871	1.327975	0.158366	-0.217700	1.342339	0.117587	-0.215265	1.405824	0.121451	-0.168594	1.401620	0.157061	0.150880	1.553266	0.064408	0.118532	1.499608	0.121382	0.115125	1.548823	0.091395	0.169464	1.505577	0.081878	0.078641	1.575941	0.031056	0.124716	1.377178	0.071433	-0.129658	1.521286	0.091484	0.110189	1.520533	0.113268
664	6.640000	0.000043	1.650310	-0.063786	-0.000391	1.406095	-0.120264	-0.200891	1.214274	0.095764	-0.152111	1.210907	0.045134	-0.183239	0.919285	0.131221	-0.152370	0.926365	0.182273	-0.149699	1.542356	0.104940	-0.215561	0.965198	0.147411	-0.210231	0.910993	0.156688	-0.197577	0.917396	0.181192	-0.193904	0.973621	0.185898	-0.175102	1.328150	0.158677	-0.217333	1.342300	0.118301	-0.214763	1.405868	0.121793	-0.168032	1.401829	0.157359	0.150873	1.553256	0.064248	0.118468	1.499615	0.121275	0.115087	1.548818	0.091264	0.169417	1.505546	0.081758	0.078619	1.575937	0.030923	0.124590	1.377156	0.071332	-0.129467	1.521368	0.091243	0.110163	1.520545	0.113148
665	6.650000	0.000089	1.650333	-0.063949	-0.000450	1.406109	-0.120388	-0.200262	1.214254	0.096403	-0.151665	1.210843	0.045601	-0.181880	0.919449	0.132650	-0.151439	0.926876	0.183909	-0.149736	1.542476	0.104766	-0.214522	0.965421	0.148454	-0.208877	0.911205	0.157865	-0.195850	0.916860	0.182183	-0.193137	0.974032	0.187067	-0.174491	1.328239	0.158940	-0.216556	1.342444	0.118229	-0.214286	1.405901	0.122112	-0.167463	1.401980	0.157450	0.150864	1.553240	0.064083	0.118397	1.499670	0.121168	0.115024	1.548867	0.091121	0.169350	1.505542	0.081678	0.078612	1.575937	0.030786	0.124481	1.377141	0.071236	-0.129245	1.521428	0.090981	0.110104	1.520606	0.113007
666	6.660000	0.000150	1.650357	-0.064117	-0.000488	1.406124	-0.120515	-0.199688	1.214230	0.097036	-0.151261	1.210756	0.046075	-0.180352	0.919631	0.134371	-0.150352	0.927481	0.185826	-0.149759	1.542598	0.104585	-0.213187	0.965416	0.149828	-0.207476	0.911391	0.159537	-0.195091	0.917765	0.184103	-0.192340	0.974627	0.188487	-0.173857	1.328425	0.159143	-0.216080	1.342460	0.118618	-0.213850	1.405920	0.122356	-0.166995	1.402090	0.157551	0.150842	1.553252	0.063955	0.118345	1.499760	0.121060	0.115003	1.548919	0.090973	0.169303	1.505573	0.081592	0.078620	1.575942	0.030647	0.124391	1.377133	0.071140	-0.128994	1.521461	0.090700	0.110052	1.520709	0.112882
667	6.670000	0.000224	1.650389	-0.064283	-0.000509	1.406147	-0.120645	-0.199191	1.214199	0.097634	-0.150912	1.210643	0.046539	-0.178657	0.919844	0.136408	-0.149099	0.928200	0.188039	-0.149765	1.542719	0.104405	-0.211933	0.965823	0.151180	-0.206013	0.911707	0.161597	-0.194016	0.918562	0.186261	-0.191200	0.975109	0.190094	-0.173435	1.328256	0.159950	-0.215638	1.342445	0.118939	-0.213486	1.405944	0.122517	-0.166531	1.402212	0.157621	0.150851	1.553286	0.063823	0.118290	1.499867	0.120954	0.114867	1.549048	0.090813	0.169288	1.505634	0.081503	0.078643	1.575953	0.030507	0.124319	1.377130	0.071039	-0.128721	1.521462	0.090405	0.110042	1.520807	0.112766
668	6.680000	0.000316	1.650419	-0.064455	-0.000499	1.406171	-0.120785	-0.198789	1.214161	0.098174	-0.150630	1.210507	0.046972	-0.176788	0.920107	0.138787	-0.147671	0.929062	0.190569	-0.149755	1.542830	0.104212	-0.210426	0.965632	0.153365	-0.204142	0.911982	0.163829	-0.192255	0.919046	0.188518	-0.191115	0.976768	0.193111	-0.172959	1.328405	0.160125	-0.215292	1.342432	0.119258	-0.213156	1.405940	0.122632	-0.166073	1.402345	0.157633	0.150883	1.553332	0.063713	0.118296	1.499953	0.120841	0.114880	1.549128	0.090667	0.169305	1.505643	0.081341	0.078684	1.575966	0.030364	0.124272	1.377130	0.070932	-0.128435	1.521429	0.090095	0.110077	1.520897	0.112664
669	6.690000	0.000421	1.650459	-0.064619	-0.000473	1.406207	-0.120934	-0.198500	1.214117	0.098627	-0.150421	1.210350	0.047358	-0.174755	0.920442	0.141525	-0.146064	0.930088	0.193419	-0.149728	1.542935	0.104021	-0.208834	0.965578	0.155660	-0.202347	0.912357	0.166565	-0.189481	0.918372	0.190724	-0.189251	0.976882	0.194726	-0.172514	1.328540	0.160281	-0.215228	1.342292	0.120032	-0.212828	1.405948	0.122689	-0.165629	1.402472	0.157580	0.150928	1.553343	0.063590	0.118311	1.499968	0.120657	0.114914	1.549170	0.090553	0.169334	1.505667	0.081260	0.078739	1.575982	0.030222	0.124245	1.377131	0.070813	-0.128141	1.521363	0.089776	0.110110	1.520942	0.112560
670	6.700000	0.000540	1.650500	-0.064782	-0.000419	1.406249	-0.121097	-0.198334	1.214068	0.098971	-0.150292	1.210176	0.047677	-0.172559	0.920873	0.144634	-0.144276	0.931311	0.196599	-0.149687	1.543026	0.103820	-0.207267	0.966007	0.158173	-0.200159	0.912807	0.169644	-0.188493	0.920230	0.194210	-0.187948	0.977866	0.197293	-0.172160	1.328651	0.160370	-0.214932	1.342326	0.120174	-0.212529	1.405972	0.122711	-0.165285	1.402572	0.157497	0.151005	1.553350	0.063459	0.118366	1.499958	0.120519	0.114973	1.549175	0.090421	0.169404	1.505760	0.081185	0.078810	1.575998	0.030079	0.124240	1.377133	0.070682	-0.127850	1.521265	0.089448	0.110178	1.520939	0.112444
671	6.710000	0.000672	1.650545	-0.064941	-0.000342	1.406298	-0.121275	-0.198300	1.214016	0.099184	-0.150245	1.209991	0.047913	-0.170207	0.921429	0.148122	-0.142309	0.932763	0.200107	-0.149633	1.543102	0.103610	-0.205278	0.966706	0.160527	-0.197984	0.913378	0.173103	-0.185821	0.920723	0.197643	-0.185960	0.978446	0.199516	-0.171899	1.328727	0.160389	-0.214764	1.342336	0.120295	-0.212284	1.405988	0.122652	-0.165028	1.402640	0.157398	0.151100	1.553327	0.063333	0.118420	1.499921	0.120377	0.115057	1.549148	0.090303	0.169470	1.505814	0.081097	0.078894	1.576013	0.029936	0.124255	1.377131	0.070536	-0.127571	1.521139	0.089115	0.110260	1.520917	0.112317
672	6.720000	0.000813	1.650597	-0.065091	-0.000249	1.406360	-0.121469	-0.198402	1.213965	0.099250	-0.150278	1.209802	0.048055	-0.167711	0.922140	0.151985	-0.140173	0.934469	0.203936	-0.149570	1.543164	0.103397	-0.203561	0.967011	0.164072	-0.195536	0.914118	0.176901	-0.183463	0.921551	0.201040	-0.185255	0.980362	0.203315	-0.171800	1.328756	0.160317	-0.214663	1.342343	0.120221	-0.212133	1.406014	0.122473	-0.164756	1.402622	0.157076	0.151175	1.553288	0.063217	0.118496	1.499896	0.120213	0.115155	1.549126	0.090157	0.169546	1.505738	0.080941	0.078987	1.576027	0.029796	0.124284	1.377126	0.070375	-0.127311	1.520991	0.088780	0.110331	1.520875	0.112183
673	6.730000	0.000966	1.650646	-0.065243	-0.000129	1.406423	-0.121680	-0.198635	1.213918	0.099159	-0.150387	1.209614	0.048091	-0.165072	0.923037	0.156220	-0.137874	0.936467	0.208077	-0.149502	1.543205	0.103165	-0.201533	0.967598	0.167400	-0.193012	0.915454	0.181057	-0.182201	0.924182	0.205703	-0.183578	0.981876	0.206566	-0.171882	1.328736	0.160136	-0.214665	1.342352	0.119890	-0.212091	1.406027	0.122129	-0.164741	1.402601	0.156781	0.151249	1.553254	0.063092	0.118545	1.499860	0.120064	0.115243	1.549123	0.090033	0.169597	1.505700	0.080809	0.079090	1.576036	0.029655	0.124328	1.377116	0.070201	-0.127080	1.520827	0.088442	0.110429	1.520845	0.112048
674	6.740000	0.001124	1.650701	-0.065384	0.000002	1.406498	-0.121906	-0.198994	1.213879	0.098904	-0.150566	1.209436	0.048020	-0.162311	0.924152	0.160809	-0.135431	0.938778	0.212509	-0.149431	1.543232	0.102927	-0.199009	0.968599	0.170317	-0.190161	0.916027	0.185525	-0.178541	0.924440	0.209491	-0.181523	0.983138	0.209805	-0.172200	1.328716	0.159860	-0.214555	1.342480	0.118874	-0.212207	1.406032	0.121615	-0.164962	1.402554	0.156437	0.151331	1.553210	0.062982	0.118565	1.499868	0.119927	0.115307	1.549098	0.089869	0.169645	1.505646	0.080684	0.079195	1.576043	0.029518	0.124378	1.377099	0.070013	-0.126880	1.520655	0.088106	0.110465	1.520826	0.111903
